HIERARCHY
ROOT Hips
{
	OFFSET	0.00	0.00	0.00
	CHANNELS 6 Xposition Yposition Zposition Zrotation Xrotation Yrotation
	JOINT LeftUpLeg
	{
		OFFSET	 0.126116	-0.014019	-0.065224
		CHANNELS 3 Zrotation Xrotation Yrotation
		JOINT LeftLeg
		{
			OFFSET	 0.000000	 0.000000	 0.569914
			CHANNELS 3 Zrotation Xrotation Yrotation
			JOINT LeftFoot
			{
				OFFSET	 0.000000	 0.000000	 0.544423
				CHANNELS 3 Zrotation Xrotation Yrotation
				JOINT LeftToeBase
				{
					OFFSET	 0.000000	 0.000000	 0.207117
					CHANNELS 3 Zrotation Xrotation Yrotation
					End Site
					{
						OFFSET	 0.000000	 0.000000	 0.207117
					}
				}
			}
		}
	}
	JOINT RightUpLeg
	{
		OFFSET	-0.124023	-0.008373	-0.065224
		CHANNELS 3 Zrotation Xrotation Yrotation
		JOINT RightLeg
		{
			OFFSET	 0.000000	 0.000000	 0.570047
			CHANNELS 3 Zrotation Xrotation Yrotation
			JOINT RightFoot
			{
				OFFSET	 0.000000	 0.000000	 0.544354
				CHANNELS 3 Zrotation Xrotation Yrotation
				JOINT RightToeBase
				{
					OFFSET	 0.000000	 0.000000	 0.207540
					CHANNELS 3 Zrotation Xrotation Yrotation
					End Site
					{
						OFFSET	 0.000000	 0.000000	 0.207540
					}
				}
			}
		}
	}
	JOINT Spine
	{
		OFFSET	 0.000184	-0.007763	 0.117403
		CHANNELS 3 Zrotation Xrotation Yrotation
		JOINT Spine1
		{
			OFFSET	 0.000000	 0.000000	 0.137269
			CHANNELS 3 Zrotation Xrotation Yrotation
			JOINT Spine2
			{
				OFFSET	 0.000000	 0.000000	 0.156879
				CHANNELS 3 Zrotation Xrotation Yrotation
				JOINT LeftShoulder
				{
					OFFSET	 0.080501	-0.002496	 0.160144
					CHANNELS 3 Zrotation Xrotation Yrotation
					JOINT LeftArm
					{
						OFFSET	 0.000000	 0.000000	 0.164363
						CHANNELS 3 Zrotation Xrotation Yrotation
						JOINT LeftForeArm
						{
							OFFSET	 0.000000	 0.000000	 0.364576
							CHANNELS 3 Zrotation Xrotation Yrotation
							JOINT LeftHand
							{
								OFFSET	 0.000000	 0.000000	 0.360812
								CHANNELS 3 Zrotation Xrotation Yrotation
								JOINT LeftHandIndex1
								{
									OFFSET	 0.000000	 0.000000	 0.086006
									CHANNELS 3 Zrotation Xrotation Yrotation
									JOINT LeftHandIndex2
									{
										OFFSET	 0.000000	 0.000000	 0.047236
										CHANNELS 3 Zrotation Xrotation Yrotation
										JOINT LeftHandIndex3
										{
											OFFSET	-0.004284	-0.000551	 0.038166
											CHANNELS 3 Zrotation Xrotation Yrotation
											End Site
											{
												OFFSET	-0.004284	-0.000551	 0.038166
											}
										}
									}
								}
							}
						}
					}
				}
				JOINT Neck
				{
					OFFSET	 0.000000	 0.000000	 0.176489
					CHANNELS 3 Zrotation Xrotation Yrotation
					JOINT Head
					{
						OFFSET	 0.000000	-0.001747	 0.077940
						CHANNELS 3 Zrotation Xrotation Yrotation
						End Site
						{
							OFFSET	 0.000000	-0.001747	 0.077940
						}
					}
				}
				JOINT RightShoulder
				{
					OFFSET	-0.080363	 0.000306	 0.159706
					CHANNELS 3 Zrotation Xrotation Yrotation
					JOINT RightArm
					{
						OFFSET	 0.000000	 0.000000	 0.164196
						CHANNELS 3 Zrotation Xrotation Yrotation
						JOINT RightForeArm
						{
							OFFSET	 0.000000	 0.000000	 0.365611
							CHANNELS 3 Zrotation Xrotation Yrotation
							JOINT RightHand
							{
								OFFSET	 0.000000	 0.000000	 0.360648
								CHANNELS 3 Zrotation Xrotation Yrotation
								JOINT RightHandIndex1
								{
									OFFSET	 0.000000	 0.000000	 0.069977
									CHANNELS 3 Zrotation Xrotation Yrotation
									JOINT RightHandIndex2
									{
										OFFSET	 0.000000	 0.000000	 0.052305
										CHANNELS 3 Zrotation Xrotation Yrotation
										JOINT RightHandIndex3
										{
											OFFSET	 0.009002	-0.000782	 0.042196
											CHANNELS 3 Zrotation Xrotation Yrotation
											End Site
											{
												OFFSET	 0.009002	-0.000782	 0.042196
											}
										}
									}
								}
							}
						}
					}
				}
			}
		}
	}
}
MOTION
Frames:    6
Frame Time: 0.03333334
-0.038143	 0.287782	 0.943015	 2.726089	 34.421450	-7.758925	 153.507500	-87.177070	-27.718400	 15.353700	-81.850860	 15.618810	-15.198050	 86.180270	 17.248630	-2.385832	 28.452790	-0.000001	 116.221200	-76.948180	-68.967900	-41.718610	-84.536900	-36.447590	 66.998230	 82.406010	-56.589930	 2.384659	 28.388700	-0.000001	 0.088574	 15.753140	 0.709899	-2.280506	 23.165980	 2.010879	-3.769623	-0.877260	 3.413573	-99.154740	 68.200750	 156.816400	 7.698684	-6.035470	-38.660420	-6.156038	 9.232821	-28.188890	-23.136850	-17.691530	-17.784660	-2.027600	 6.559038	 9.033609	-5.188889	 0.308190	 3.541030	-5.234859	 0.342567	 0.430617	 0.353469	 17.584460	-6.005851	-2.490513	-26.464450	-1.926481	 97.434730	 64.653190	-159.146000	-5.051626	 4.297282	 54.251620	-6.748498	 0.432189	 25.576670	 7.486222	-16.493060	 13.491280	 1.803333	 3.979147	-15.098590	 4.898592	 3.004813	-9.310344	 5.224449	 0.395017	 2.014677
-0.038343	 0.285370	 0.949615	 2.458740	 33.599960	-7.177454	 145.413500	-88.718700	-35.824590	 13.578780	-81.271430	 13.839500	-18.131700	 86.118130	 20.255980	-2.385832	 28.452790	-0.000001	 110.384500	-78.014130	-74.895610	-38.232760	-83.870010	-32.936390	 66.229310	 82.518380	-55.680270	 2.384659	 28.388700	-0.000001	 0.286538	 15.919970	 0.559266	-1.995475	 24.023560	 1.643180	-3.804172	-2.097772	 3.097874	-98.788270	 68.462950	 157.552000	 7.284255	-4.361198	-39.630520	-5.789813	 9.231657	-28.749780	-23.750280	-18.059560	-18.364200	-2.027600	 6.559038	 9.033609	-5.188889	 0.308190	 3.541030	-5.234859	 0.342567	 0.430617	-0.213762	 13.709030	-4.704527	-2.822426	-22.611370	-2.416802	 97.216810	 64.384040	-159.938600	-5.564801	 4.182020	 54.929360	-6.238105	 0.686385	 25.895650	 7.513031	-16.639260	 14.694750	 1.803333	 3.979147	-15.098590	 4.898592	 3.004813	-9.310344	 5.224449	 0.395017	 2.014677
-0.038294	 0.282903	 0.958879	 2.224717	 32.633590	-6.612576	 10.816590	-89.171490	-170.323400	 11.866340	-80.291310	 12.112200	-20.592020	 85.862700	 22.664060	-2.385832	 28.452790	-0.000001	 101.456900	-79.042800	-83.818340	-34.134660	-82.859540	-28.799670	 64.207690	 82.607710	-53.529690	 2.384659	 28.388700	-0.000001	 0.452992	 16.153560	 0.441234	-1.643915	 24.746870	 1.236894	-3.897049	-3.377827	 2.754154	-98.194500	 69.162540	 158.361600	 7.069603	-2.103638	-40.783610	-5.357105	 9.190940	-29.333340	-24.435850	-18.549270	-19.250950	-2.027600	 6.559038	 9.033609	-5.188889	 0.308190	 3.541030	-5.234859	 0.342567	 0.430617	-0.676857	 9.029488	-3.627152	-3.047253	-17.996650	-2.722203	 96.933650	 64.138020	-160.866100	-6.128397	 4.142154	 55.505580	-5.938923	 0.852163	 26.444970	 7.272236	-16.527940	 15.806550	 1.803333	 3.979147	-15.098590	 4.898592	 3.004813	-9.310344	 5.224449	 0.395017	 2.014677
-0.037685	 0.280627	 0.970190	 1.934518	 31.453230	-5.980829	-7.439697	-86.890330	 171.510100	 10.247960	-79.031290	 10.474020	-22.345210	 85.558560	 24.330060	-2.385833	 28.452760	 0.000004	 88.559110	-79.772440	-96.705130	-30.445380	-81.535410	-25.057490	 61.979810	 82.669310	-51.145840	 2.384659	 28.388700	-0.000001	 0.526128	 16.404150	 0.334159	-1.330487	 25.296910	 0.899659	-4.005072	-4.764064	 2.357048	-97.331150	 70.393940	 159.229500	 7.354754	 0.888291	-42.035200	-4.885412	 9.081115	-29.820340	-25.193020	-19.104660	-20.545850	-2.027600	 6.559038	 9.033609	-5.188889	 0.308190	 3.541030	-5.234859	 0.342567	 0.430617	-1.005173	 3.520337	-2.479624	-3.283690	-12.641070	-3.134821	 96.597910	 64.375590	-161.515500	-6.905427	 5.061785	 55.655030	-6.098308	 0.801167	 27.278820	 6.923439	-16.312770	 16.597770	 1.803333	 3.979147	-15.098590	 4.898592	 3.004813	-9.310344	 5.224449	 0.395017	 2.014677
-0.036484	 0.279297	 0.983586	 1.619189	 30.036240	-5.220364	-9.896273	-84.179810	 169.125300	 9.372480	-77.432280	 9.558857	-22.970790	 85.205190	 24.685820	-2.385833	 28.452760	 0.000004	 71.804400	-79.890650	-113.413500	-27.577130	-79.821300	-22.112070	 59.559010	 82.704700	-48.449150	 2.384659	 28.388700	-0.000001	 0.565730	 16.804210	 0.172453	-0.972195	 25.758620	 0.443814	-4.082773	-6.219006	 2.053633	-95.737030	 72.998720	 159.999300	 8.227166	 5.266802	-44.279770	-4.387662	 8.840752	-30.014680	-26.159400	-19.801950	-21.803130	-2.027600	 6.559038	 9.033609	-5.188889	 0.308190	 3.541030	-5.234859	 0.342567	 0.430617	-1.258760	-2.475362	-2.205240	-3.285968	-6.844593	-2.825078	 95.754320	 65.973750	-162.359800	-7.907240	 7.676357	 56.511760	-6.514688	 0.606706	 28.083010	 6.917875	-16.910230	 17.283410	 1.803333	 3.979147	-15.098590	 4.898592	 3.004813	-9.310344	 5.224449	 0.395017	 2.014677
-0.034506	 0.277616	 0.999343	 1.403548	 28.437380	-4.458124	-10.369410	-81.053220	 168.835600	 8.765507	-75.459730	 8.892737	-22.121750	 84.710610	 23.477030	-2.385833	 28.452750	 0.000004	 54.063200	-78.855190	-131.047900	-23.076540	-77.891240	-17.556090	 56.989960	 82.724630	-46.002230	 2.384659	 28.388700	-0.000001	 0.541707	 17.131130	-0.031913	-0.654646	 26.069430	-0.042174	-4.153958	-7.676800	 1.807331	-94.004260	 75.591590	 160.704000	 9.892907	 9.519565	-46.596520	-3.853673	 8.569234	-30.193200	-26.753700	-20.459480	-23.047290	-2.027600	 6.559038	 9.033609	-5.188889	 0.308190	 3.541030	-5.234859	 0.342567	 0.430617	-1.497039	-8.887549	-2.376824	-3.280028	-0.736505	-2.262110	 94.873730	 67.695400	-163.218400	-9.328405	 10.323920	 57.025130	-6.884969	 0.431537	 29.373060	 6.892638	-17.552660	 17.715840	 1.803333	 3.979147	-15.098590	 4.898592	 3.004813	-9.310344	 5.224449	 0.395017	 2.014677
